# File produced by Open Asset Import Library (http://www.assimp.sf.net)
# (assimp v5.0.1588609223)

mtllib result.mtl

# 56 vertex positions
v  0.8125 0.0625 0.8125
v  0.8125 0 0.8125
v  0.8125 0.0625 0.1875
v  0.8125 0 0.1875
v  0.1875 0.0625 0.1875
v  0.1875 0 0.1875
v  0.1875 0.0625 0.8125
v  0.1875 0 0.8125
v  0.75 0.3125 0.75
v  0.75 0.0625 0.75
v  0.75 0.3125 0.25
v  0.75 0.0625 0.25
v  0.25 0.3125 0.25
v  0.25 0.0625 0.25
v  0.25 0.3125 0.75
v  0.25 0.0625 0.75
v  0.8329556 0.50875157 0.65625
v  0.66722739 0.34302339 0.65625
v  0.8329556 0.50875157 0.34375
v  0.66722739 0.34302339 0.34375
v  0.61198467 0.72972238 0.34375
v  0.44625652 0.56399423 0.34375
v  0.61198467 0.72972238 0.65625
v  0.44625652 0.56399423 0.65625
v  0.96553808 0.50875151 0.5625
v  0.88819826 0.43141174 0.5625
v  0.96553808 0.50875151 0.4375
v  0.88819826 0.43141174 0.4375
v  0.74456722 0.72972238 0.4375
v  0.66722739 0.65238261 0.4375
v  0.74456722 0.72972238 0.5625
v  0.66722739 0.65238261 0.5625
v  0.96553832 0.50875151 0.55624998
v  1.0564256 0.2893301 0.55624998
v  0.96553832 0.50875151 0.44374999
v  1.0564256 0.2893301 0.44374999
v  0.87603748 0.47167903 0.44374999
v  0.96692479 0.25225762 0.44374999
v  0.87603748 0.47167903 0.55624998
v  0.96692479 0.25225762 0.55624998
v  1.0715826 0.32677814 0.58749998
v  1.0715826 0.15177813 0.58749998
v  1.0715826 0.32677814 0.41250002
v  1.0715826 0.15177813 0.41250002
v  0.89658248 0.32677814 0.41250002
v  0.89658248 0.15177813 0.41250002
v  0.89658248 0.32677814 0.58749998
v  0.89658248 0.15177813 0.58749998
v  0.78960347 0.42512539 0.71249998
v  0.65686017 0.1046547 0.71249998
v  0.78960347 0.42512539 0.28749999
v  0.65686017 0.1046547 0.28749999
v  0.39695469 0.58776587 0.28749999
v  0.26421139 0.26729515 0.28749999
v  0.39695469 0.58776587 0.71249998
v  0.26421139 0.26729515 0.71249998

# 89 UV coordinates
vt 0.5 0.59375 0
vt 0.5 0.578125 0
vt 0.65625 0.59375 0
vt 0.65625 0.578125 0
vt 0.5 0.5625 0
vt 0.5 0.546875 0
vt 0.65625 0.5625 0
vt 0.65625 0.546875 0
vt 0.15625 0.84375 0
vt 0.15625 1 0
vt 0 0.84375 0
vt 0 1 0
vt 0.15625 0.6875 0
vt 0 0.6875 0
vt 0.5 0.609375 0
vt 0.65625 0.609375 0
vt 0.25 0.515625 0
vt 0.25 0.453125 0
vt 0.375 0.515625 0
vt 0.375 0.453125 0
vt 0.5 0.671875 0
vt 0.625 0.671875 0
vt 0.625 0.609375 0
vt 0.28125 0.875 0
vt 0.28125 1 0
vt 0.15625 0.875 0
vt 0.28125 0.75 0
vt 0.15625 0.75 0
vt 0.5 0.515625 0
vt 0.5 0.453125 0
vt 0.125 0.515625 0
vt 0.125 0.453125 0
vt 0.125 0.625 0
vt 0.25 0.625 0
vt 0.375 0.625 0
vt 0.5 0.625 0
vt 0.28125 0.625 0
vt 0.15625 0.625 0
vt 0.40625 1 0
vt 0.40625 0.875 0
vt 0 0.578125 0
vt 0.125 0.6875 0
vt 0.125 0.578125 0
vt 0.0625 0.46875 0
vt 0.0625 0.4375 0
vt 0.09375 0.46875 0
vt 0.09375 0.4375 0
vt 0.53125 0.9375 0
vt 0.53125 0.90625 0
vt 0.5625 0.9375 0
vt 0.5625 0.90625 0
vt 0.578125 0.484375 0
vt 0.578125 0.515625 0
vt 0.5 0.484375 0
vt 0.578125 0.453125 0
vt 0.578125 0.546875 0
vt 0.40625 0.671875 0
vt 0.40625 0.640625 0
vt 0.484375 0.671875 0
vt 0.484375 0.640625 0
vt 0 0.46875 0
vt 0 0.40625 0
vt 0.03125 0.46875 0
vt 0.03125 0.40625 0
vt 0.0625 0.40625 0
vt 0.125 0.4375 0
vt 0.125 0.46875 0
vt 0.5625 0.875 0
vt 0.53125 0.875 0
vt 0.53125 1 0
vt 0.5625 1 0
vt 0.53125 0.84375 0
vt 0.53125 0.8125 0
vt 0.5625 0.84375 0
vt 0.5625 0.8125 0
vt 0.53125 0.78125 0
vt 0.53125 0.75 0
vt 0.5625 0.78125 0
vt 0.5625 0.75 0
vt 0.5625 0.71875 0
vt 0.53125 0.71875 0
vt 0.5625 0.6875 0
vt 0.53125 0.6875 0
vt 0.40625 0.890625 0
vt 0.40625 0.78125 0
vt 0.53125 0.890625 0
vt 0.40625 0.75 0
vt 0.40625 0.625 0
vt 0.53125 0.671875 0

# 18 vertex normals
vn 1 0 0
vn -1 0 0
vn 0 1 0
vn 0 -1 0
vn 0 0 1
vn 0 0 -1
vn 0.70710683 -0.70710677 0
vn -0.70710683 0.70710677 0
vn 0.70710677 0.70710683 0
vn -0.70710677 -0.70710683 0
vn 0.9238795 0.38268343 0
vn -0.9238795 -0.38268343 0
vn -0.38268343 0.9238795 0
vn 0.38268343 -0.9238795 0
vn 0.9238795 -0.38268343 0
vn -0.9238795 0.38268343 0
vn 0.38268343 0.9238795 0
vn -0.38268343 -0.9238795 0

# Mesh 'meshes_0' with 12 faces
g meshes_0
usemtl $Material_0
f  1/1/1 2/2/1 3/3/1
f  2/2/1 4/4/1 3/3/1
f  5/5/2 6/6/2 7/7/2
f  6/6/2 8/8/2 7/7/2
f  5/9/3 7/10/3 3/11/3
f  7/10/3 1/12/3 3/11/3
f  8/9/4 6/13/4 2/11/4
f  6/13/4 4/14/4 2/11/4
f  7/2/5 8/5/5 1/4/5
f  8/5/5 2/7/5 1/4/5
f  3/15/6 4/1/6 5/16/6
f  4/1/6 6/3/6 5/16/6

# Mesh 'meshes_1' with 12 faces
g meshes_1
usemtl $Material_0
f  9/17/1 10/18/1 11/19/1
f  10/18/1 12/20/1 11/19/1
f  13/21/2 14/15/2 15/22/2
f  14/15/2 16/23/2 15/22/2
f  13/24/3 15/25/3 11/26/3
f  15/25/3 9/10/3 11/26/3
f  16/24/4 14/27/4 10/26/4
f  14/27/4 12/28/4 10/26/4
f  15/19/5 16/20/5 9/29/5
f  16/20/5 10/30/5 9/29/5
f  11/31/6 12/32/6 13/17/6
f  12/32/6 14/18/6 13/17/6

# Mesh 'meshes_2' with 12 faces
g meshes_2
usemtl $Material_0
f  17/33/7 18/31/7 19/34/7
f  18/31/7 20/17/7 19/34/7
f  21/35/8 22/19/8 23/36/8
f  22/19/8 24/29/8 23/36/8
f  21/37/9 23/27/9 19/38/9
f  23/27/9 17/28/9 19/38/9
f  24/39/10 22/40/10 18/25/10
f  22/40/10 20/24/10 18/25/10
f  23/34/5 24/17/5 17/35/5
f  24/17/5 18/19/5 17/35/5
f  19/14/6 20/41/6 21/42/6
f  20/41/6 22/43/6 21/42/6

# Mesh 'meshes_3' with 12 faces
g meshes_3
usemtl $Material_0
f  25/44/7 26/45/7 27/46/7
f  26/45/7 28/47/7 27/46/7
f  29/48/8 30/49/8 31/50/8
f  30/49/8 32/51/8 31/50/8
f  29/52/9 31/53/9 27/54/9
f  31/53/9 25/29/9 27/54/9
f  32/52/10 30/55/10 26/54/10
f  30/55/10 28/30/10 26/54/10
f  31/6/5 32/29/5 25/56/5
f  32/29/5 26/53/5 25/56/5
f  27/57/6 28/58/6 29/59/6
f  28/58/6 30/60/6 29/59/6

# Mesh 'meshes_4' with 12 faces
g meshes_4
usemtl $Material_0
f  33/61/11 34/62/11 35/63/11
f  34/62/11 36/64/11 35/63/11
f  37/63/12 38/64/12 39/44/12
f  38/64/12 40/65/12 39/44/12
f  37/66/13 39/67/13 35/47/13
f  39/67/13 33/46/13 35/47/13
f  40/51/14 38/68/14 34/49/14
f  38/68/14 36/69/14 34/49/14
f  39/70/5 40/48/5 33/71/5
f  40/48/5 34/50/5 33/71/5
f  35/42/6 36/33/6 37/13/6
f  36/33/6 38/38/6 37/13/6

# Mesh 'meshes_5' with 12 faces
g meshes_5
usemtl $Material_0
f  41/72/1 42/73/1 43/74/1
f  42/73/1 44/75/1 43/74/1
f  45/76/2 46/77/2 47/78/2
f  46/77/2 48/79/2 47/78/2
f  45/80/3 47/79/3 43/81/3
f  47/79/3 41/77/3 43/81/3
f  48/80/4 46/82/4 42/81/4
f  46/82/4 44/83/4 42/81/4
f  47/73/5 48/76/5 41/75/5
f  48/76/5 42/78/5 41/75/5
f  43/69/6 44/72/6 45/68/6
f  44/72/6 46/74/6 45/68/6

# Mesh 'meshes_6' with 12 faces
g meshes_6
usemtl $Material_0
f  49/84/15 50/85/15 51/86/15
f  50/85/15 52/76/15 51/86/15
f  53/41/16 54/61/16 55/43/16
f  54/61/16 56/67/16 55/43/16
f  53/87/17 55/40/17 51/27/17
f  55/40/17 49/24/17 51/27/17
f  56/87/18 54/88/18 50/27/18
f  54/88/18 52/37/18 50/27/18
f  55/85/5 56/57/5 49/76/5
f  56/57/5 50/89/5 49/76/5
f  51/39/6 52/84/6 53/70/6
f  52/84/6 54/86/6 53/70/6

